<?xml version="1.0" standalone="no"?><!DOCTYPE svg PUBLIC "-//W3C//DTD SVG 1.1//EN" "http://www.w3.org/Graphics/SVG/1.1/DTD/svg11.dtd"><svg t="1636515779050" class="icon" viewBox="0 0 1024 1024" version="1.1" xmlns="http://www.w3.org/2000/svg" p-id="3019" width="32" height="32" xmlns:xlink="http://www.w3.org/1999/xlink"><defs><style type="text/css"></style></defs><path d="M512 1024c-56.096-89.344-97.184-137.728-123.296-145.184C201.216 825.248 64 652.672 64 448 64 200.576 264.576 0 512 0s448 200.576 448 448c0 203.168-135.232 374.72-320.608 429.632-26.88 7.968-69.376 56.768-127.392 146.368zM394.144 256H352.16A64 64 0 0 0 288.32 315.456l-27.424 384A64 64 0 0 0 324.736 768h374.528a64 64 0 0 0 63.84-68.544l-27.424-384A64 64 0 0 0 671.84 256h-41.984c19.84-135.296-18.976-208-117.856-208S374.336 120.704 394.144 256z m32.32 0c-19.2-120.768 9.824-176 85.536-176s104.768 55.232 85.568 176h-171.136zM416 384a32 32 0 1 1 0-64 32 32 0 0 1 0 64z m192 0a32 32 0 1 1 0-64 32 32 0 0 1 0 64z" p-id="3020" fill="#d4237a"></path></svg>